<?xml version="1.0" encoding="utf-8"?>
<!-- Generator: Adobe Illustrator 21.1.0, SVG Export Plug-In . SVG Version: 6.00 Build 0)  -->
<svg version="1.0" id="Layer_1" xmlns="http://www.w3.org/2000/svg" xmlns:xlink="http://www.w3.org/1999/xlink" x="0px" y="0px"
	 viewBox="0 0 254.6722 86.6889" style="enable-background:new 0 0 254.6722 86.6889;" xml:space="preserve">
<style type="text/css">
	.st0{fill:#FFFFFF;}
	.st1{fill:#FF0000;}
</style>
<g>
	<g>
		<path class="st0" d="M8.4065,44.9823H2.3264L24.4236,3.6244h11.9072l8.5581,41.3579H32.1584l-2.5698-12.3208H15.0212
			L8.4065,44.9823z M25.4924,12.7875l-7.7036,14.6733h10.7676L25.4924,12.7875z"/>
		<path class="st0" d="M61.9905,44.9823H46.3459l4.5522-27.3037H65.656c3.167,0,5.5244,0.6099,7.0747,1.8262
			c1.5479,1.2183,2.1338,2.9624,1.7554,5.2319c-0.2544,1.5273-1.0112,2.8384-2.2705,3.9312
			c-1.2588,1.0942-2.6343,1.8062-4.125,2.1362c1.6973,0.4565,2.9849,1.2856,3.8608,2.4868
			c0.8765,1.2026,1.1587,2.7368,0.8481,4.6021c-0.3599,2.1567-1.4912,3.8774-3.394,5.1626
			C67.5017,44.3397,65.0305,44.9823,61.9905,44.9823z M57.3752,33.1566l-1.3213,7.9243h1.71c3.6309,0,5.6646-1.3096,6.1016-3.9312
			c0.4438-2.6616-1.1494-3.9932-4.7803-3.9932H57.3752z M59.3054,21.5795l-1.2798,7.6772h1.583
			c3.7148,0,5.7798-1.2383,6.1929-3.7148c0.4399-2.6416-1.1758-3.9624-4.8496-3.9624H59.3054z"/>
		<path class="st0" d="M80.8635,44.9823l3.9019-23.4028h-8.0439l0.6504-3.9009h25.1455l-0.6504,3.9009H93.823l-3.9019,23.4028
			H80.8635z"/>
		<path class="st0" d="M101.2292,31.4852c0.7021-4.21,2.5977-7.667,5.688-10.3701c3.0884-2.7031,6.7661-4.0557,11.0317-4.0557
			c4.1377,0,7.4141,1.4346,9.8281,4.3032c2.4136,2.8691,3.2803,6.3457,2.5986,10.4321c-0.6812,4.0859-2.6582,7.3984-5.9312,9.9365
			c-3.2739,2.5391-7.001,3.8076-11.1807,3.8076c-4.0537,0-7.2422-1.3311-9.564-3.9932S100.5544,35.5306,101.2292,31.4852z
			 M111.3098,31.4232c-0.6196,3.7148-0.6777,6.4077-0.1753,8.0796s1.5986,2.5078,3.2871,2.5078
			c1.6475,0,3.0527-1.3418,4.2178-4.0244c0.8164-1.8579,1.418-3.9414,1.8032-6.2534c0.5298-3.1782,0.707-5.5103,0.5327-6.9961
			c-0.3262-2.6001-1.5459-3.9004-3.6562-3.9004c-1.5625,0-2.9092,1.2383-4.0391,3.7148
			C112.4206,26.4081,111.7639,28.6991,111.3098,31.4232z"/>
		<path class="st0" d="M128.6838,44.9823l16.0737-18.9116l-9.1777-22.4463h13.2373l4.8799,11.7637l9.8779-11.7637h6.334
			l-14.1504,16.8652l10.2939,24.4927h-13.4902l-5.7949-13.8687l-11.8765,13.8687H128.6838z"/>
		<path class="st0" d="M173.9079,39.6571c0.9473,1.1562,2.1816,1.7344,3.7012,1.7344c2.2793,0,4.0996-0.9082,5.457-2.7246
			c1.0293-1.3618,1.7373-3.1982,2.123-5.5103h-8.1074l0.6504-3.8999h8.1074c0.3643-2.188,0.2129-4.0649-0.4531-5.6343
			c-0.7891-1.8579-2.2393-2.7861-4.3506-2.7861c-1.2666,0-2.5137,0.5166-3.7412,1.5479c-0.9336,0.7847-1.8516,1.8569-2.7539,3.2192
			l-3.3955-2.043c3.2969-4.334,7.5439-6.501,12.7373-6.501c4.1377,0,7.3145,1.4658,9.5273,4.396
			c2.0732,2.7656,2.7861,6.0884,2.1387,9.9678c-0.7285,4.3755-2.7041,7.8628-5.9248,10.4624
			c-3.0244,2.4375-6.542,3.6533-10.5518,3.6533c-3.084,0-5.5117-0.7627-7.2832-2.29c-1.4053-1.1973-2.5566-3.0342-3.4512-5.5103
			l3.793-1.8579C172.5368,37.4906,173.1306,38.7499,173.9079,39.6571z"/>
		<path class="st0" d="M193.6677,44.9823l11.9863-23.2686c0.6992-1.4067,1.5947-2.5342,2.6865-3.3823
			c1.0908-0.8477,2.3545-1.272,3.79-1.272c1.3506,0,2.4082,0.4346,3.1719,1.3032c0.7617,0.8687,1.2617,1.9858,1.499,3.3511
			l4.0381,23.2686h-9.502l-2.916-20.4937l-10.3848,20.4937H193.6677z"/>
		<path class="st0" d="M246.1716,35.8807l3.1729,1.8579c-1.7217,2.4761-3.4854,4.313-5.2881,5.5103
			c-2.2832,1.5273-4.9648,2.29-8.0469,2.29c-4.0117,0-7.123-1.2158-9.335-3.6533c-2.3535-2.5996-3.165-6.0869-2.4365-10.4624
			c0.6475-3.8794,2.4688-7.2021,5.4629-9.9678c3.1904-2.9302,6.8555-4.396,10.9941-4.396c5.1934,0,8.7168,2.167,10.5703,6.501
			l-4.0781,2.043c-0.4482-1.3623-1.0088-2.4346-1.6797-3.2192c-0.8838-1.0312-1.959-1.5479-3.2256-1.5479
			c-2.4072,0-4.3311,1.2793-5.7705,3.8384c-1.0215,1.8169-1.7617,4.1074-2.2227,6.8726c-0.5986,3.5908-0.4375,6.1704,0.4834,7.7388
			c0.8203,1.4043,2.1826,2.1055,4.083,2.1055c1.5195,0,2.9453-0.5781,4.2793-1.7344
			C244.2126,38.7499,245.2263,37.4906,246.1716,35.8807z"/>
	</g>
	<path class="st1" d="M59.4705,72.116c-1.6008-8.938,4.5082-16.4649,24.6974-19.4051c20.1891-2.9402,64.6836-2.9402,84.2846,3.5282
		s16.0729,18.621,11.1726,23.5213c-4.9003,4.9003-19.7971,3.3322-34.6939,1.5681c-14.8968-1.7641-41.9463,0.196-55.471,1.7641
		C75.9354,84.6607,61.8227,85.2488,59.4705,72.116z"/>
	<g>
		<path class="st0" d="M12.1511,68.7469l2.2041,0.25c-0.1216,0.46-0.3208,0.8574-0.5981,1.1934
			c-0.2769,0.3359-0.6313,0.5977-1.062,0.7832c-0.4312,0.1855-0.979,0.2793-1.6431,0.2793c-0.6421,0-1.1763-0.0605-1.6035-0.1797
			S8.654,70.7606,8.3464,70.493s-0.5488-0.5811-0.7231-0.9414c-0.1748-0.3613-0.2622-0.8379-0.2622-1.4336
			c0-0.623,0.1064-1.1406,0.3188-1.5547c0.1558-0.3027,0.3687-0.5752,0.6382-0.8164c0.2695-0.2402,0.5469-0.4199,0.8315-0.5371
			c0.4517-0.1855,1.0308-0.2793,1.7368-0.2793c0.9873,0,1.7402,0.1768,2.2583,0.5293c0.5186,0.3535,0.8818,0.8701,1.0908,1.5498
			l-2.1812,0.29c-0.0684-0.2578-0.1929-0.4521-0.373-0.584c-0.1807-0.1309-0.4229-0.1953-0.7266-0.1953
			c-0.3833,0-0.6938,0.1367-0.9312,0.4121c-0.2373,0.2744-0.356,0.6904-0.356,1.248c0,0.4961,0.1177,0.873,0.353,1.1309
			c0.2358,0.2578,0.5356,0.3867,0.8999,0.3867c0.3037,0,0.5591-0.0781,0.7661-0.2344
			C11.8938,69.3094,12.0486,69.0692,12.1511,68.7469z"/>
		<path class="st0" d="M22.3689,71.1161H20.051v-4.3574h-1.7598v2.5381c0,0.6768-0.1377,1.1787-0.4131,1.5049
			c-0.2754,0.3281-0.6978,0.4912-1.2671,0.4912c-0.646,0-1.2246-0.0596-1.7373-0.1768v-1.7148
			c0.2734,0.084,0.4819,0.126,0.6265,0.126c0.3115,0,0.4673-0.2314,0.4673-0.6963v-3.7637h6.4014V71.1161z"/>
		<path class="st0" d="M23.1037,65.0673h2.4458l1.2476,4.0273l1.1587-4.0273H30.24l-2.3994,6.4629
			c-0.2734,0.7373-0.5522,1.2344-0.8369,1.4941c-0.4023,0.3643-1.0156,0.5469-1.8389,0.5469c-0.334,0-0.8501-0.0459-1.5488-0.1367
			l-0.1816-1.6172c0.3335,0.1055,0.7056,0.1582,1.1152,0.1582c0.2729,0,0.4941-0.0625,0.6626-0.1875
			c0.1689-0.125,0.312-0.3496,0.4297-0.6729L23.1037,65.0673z"/>
		<path class="st0" d="M40.9133,71.1161H38.299l-0.8145-1.6689c-0.1328-0.2764-0.2456-0.4463-0.3389-0.5098
			c-0.0928-0.0625-0.2285-0.0938-0.4072-0.0938v2.2725h-2.3237v-2.2725c-0.1743,0-0.3086,0.0303-0.4014,0.0908
			c-0.0933,0.0605-0.208,0.2324-0.3447,0.5127l-0.8145,1.6689H30.24l1.0254-1.8164c0.2734-0.4863,0.5088-0.8086,0.7061-0.9658
			c0.1978-0.1572,0.4995-0.2529,0.9058-0.2881c-0.2012-0.0371-0.3701-0.1133-0.5068-0.2275s-0.2793-0.3076-0.4272-0.5811
			s-0.3037-0.4414-0.4673-0.5039c-0.1631-0.0625-0.4116-0.0938-0.7461-0.0938h-0.1025V64.993c0.7939,0,1.3623,0.0332,1.7061,0.0996
			s0.6094,0.2031,0.7974,0.4102s0.3691,0.5078,0.5439,0.9033c0.1748,0.3945,0.2979,0.6309,0.3701,0.709
			c0.0723,0.0771,0.1958,0.124,0.3701,0.1396v-2.1875h2.3237v2.1875c0.1748-0.0156,0.2983-0.0625,0.3706-0.1396
			c0.0718-0.0781,0.1953-0.3145,0.3701-0.709c0.1743-0.3955,0.356-0.6963,0.5439-0.9033s0.4546-0.3438,0.8003-0.4102
			c0.3452-0.0664,0.915-0.0996,1.7085-0.0996v1.6465h-0.1084c-0.3301,0-0.5781,0.0312-0.7432,0.0938s-0.3218,0.2305-0.4697,0.5039
			c-0.1484,0.2734-0.2905,0.4668-0.4272,0.5811s-0.3057,0.1904-0.5068,0.2275c0.3872,0.0352,0.6807,0.124,0.8799,0.2676
			c0.1992,0.1445,0.4434,0.4727,0.7319,0.9863L40.9133,71.1161z"/>
		<path class="st0" d="M43.6985,65.244c0.2773-0.209,0.6587-0.3135,1.145-0.3135c1.1353,0,2,0.2988,2.5942,0.8984
			c0.5942,0.5977,0.8911,1.3438,0.8911,2.2373c0,0.8857-0.2949,1.6387-0.8853,2.2607c-0.5908,0.6211-1.4575,0.9316-2.6001,0.9316
			c-1.1392,0-1.999-0.3125-2.5801-0.9375c-0.5811-0.624-0.8716-1.6426-0.8716-3.0547c0-1.3066,0.2505-2.3623,0.752-3.168
			c0.501-0.8047,1.2227-1.2217,2.1641-1.2519l0.7007-0.0234c0.6265-0.0264,0.9722-0.1074,1.0366-0.2441h1.8398
			c0,1.1045-0.6211,1.6797-1.8628,1.7246c-0.8389,0.0312-1.4087,0.1133-1.7085,0.2461
			C44.0139,64.6835,43.8088,64.9149,43.6985,65.244z M44.8547,69.6688c0.3721,0,0.6577-0.1367,0.8574-0.4102
			c0.1992-0.2734,0.2988-0.666,0.2988-1.1758c0-0.5059-0.1025-0.8936-0.3076-1.1641c-0.2051-0.2695-0.4805-0.4043-0.8257-0.4043
			c-0.3838,0-0.6743,0.1465-0.8716,0.4414s-0.2959,0.6777-0.2959,1.1504c0,0.4902,0.0977,0.873,0.293,1.1494
			C44.199,69.5321,44.4826,69.6688,44.8547,69.6688z"/>
		<path class="st0" d="M51.5637,67.0262l-2.2153-0.2324c0.0835-0.3877,0.2041-0.6924,0.3613-0.9141
			c0.1577-0.2227,0.3848-0.416,0.6807-0.5781c0.2129-0.1182,0.5049-0.209,0.8774-0.2734c0.3721-0.0645,0.7744-0.0977,1.2075-0.0977
			c0.6948,0,1.2529,0.0391,1.6743,0.1172s0.7725,0.2402,1.0537,0.4863c0.1973,0.1719,0.353,0.4141,0.4668,0.7266
			c0.1143,0.3135,0.1709,0.6123,0.1709,0.8965v2.6719c0,0.2852,0.0181,0.5078,0.0542,0.6689s0.1147,0.3682,0.2363,0.6182h-2.1758
			c-0.0874-0.1562-0.144-0.2744-0.1709-0.3555c-0.0264-0.082-0.0532-0.2109-0.0796-0.3848c-0.3037,0.293-0.6055,0.501-0.9058,0.627
			c-0.4097,0.166-0.8862,0.25-1.4292,0.25c-0.7217,0-1.2695-0.167-1.6436-0.502c-0.374-0.334-0.5605-0.7461-0.5605-1.2354
			c0-0.459,0.1343-0.8369,0.4043-1.1338c0.2695-0.2949,0.7666-0.5156,1.4922-0.6602c0.8691-0.1748,1.4331-0.2969,1.6914-0.3672
			s0.5317-0.1621,0.8203-0.2764c0-0.2842-0.0591-0.4844-0.1768-0.5986c-0.1177-0.1133-0.3247-0.1699-0.6206-0.1699
			c-0.3799,0-0.6646,0.0605-0.8545,0.1816C51.7746,66.5868,51.655,66.7645,51.5637,67.0262z M53.5744,68.245
			c-0.3188,0.1143-0.6514,0.2148-0.9971,0.3027c-0.4707,0.125-0.7686,0.248-0.894,0.3701c-0.1289,0.125-0.1934,0.2676-0.1934,0.4268
			c0,0.1826,0.0635,0.332,0.1904,0.4473c0.1274,0.1152,0.3145,0.1738,0.561,0.1738c0.2583,0,0.4985-0.0625,0.7207-0.1875
			c0.2222-0.126,0.3794-0.2793,0.4727-0.459c0.0928-0.1797,0.1396-0.415,0.1396-0.7031V68.245z"/>
	</g>
	<g>
		<path class="st0" d="M193.1775,67.9833c0.3604,0.1143,0.6465,0.291,0.8594,0.5332c0.2129,0.2402,0.3184,0.5078,0.3184,0.7998
			c0,0.6299-0.3008,1.1104-0.9043,1.4404c-0.6045,0.3311-1.4854,0.4961-2.6436,0.4961c-0.9717,0-1.7354-0.1797-2.292-0.5381
			s-0.958-0.8994-1.2051-1.6201l2.2051-0.2451c0.0752,0.2119,0.2324,0.4014,0.4688,0.5664c0.2383,0.165,0.5078,0.248,0.8125,0.248
			c0.7773,0,1.167-0.1943,1.167-0.5811c0-0.1328-0.0732-0.2402-0.2217-0.3223c-0.1484-0.0811-0.3418-0.1221-0.5811-0.1221h-1.0088
			v-1.1904h1.0312c0.2012,0,0.3848-0.041,0.5527-0.125c0.167-0.084,0.25-0.1895,0.25-0.3193c0-0.1436-0.0977-0.2617-0.293-0.3525
			c-0.1953-0.0918-0.4678-0.1367-0.8174-0.1367c-0.3408,0-0.6299,0.0703-0.8662,0.2129c-0.2344,0.1426-0.3848,0.3125-0.4492,0.5098
			l-2.1357-0.29c0.208-0.6875,0.5908-1.1953,1.1445-1.5244c0.5547-0.3281,1.3193-0.4922,2.2959-0.4922
			c1.0137,0,1.8086,0.166,2.3828,0.4961c0.5762,0.3301,0.8633,0.748,0.8633,1.252
			C194.1111,67.287,193.7995,67.7216,193.1775,67.9833z"/>
		<path class="st0" d="M202.3689,72.8417h-1.6055v-1.7256h-4.2832v1.7256h-1.6113v-3.417h0.5859
			c0.4258-0.7607,0.6387-1.7568,0.6387-2.9883v-1.3691h5.6387v4.3574h0.6367V72.8417z M199.4079,69.4247v-2.666h-1.1113v0.0684
			c0,0.8418-0.1816,1.707-0.5469,2.5977H199.4079z"/>
		<path class="st0" d="M202.9275,68.1083c0-0.9219,0.3115-1.6826,0.9336-2.2803c0.623-0.5986,1.4648-0.8975,2.5234-0.8975
			c1.2109,0,2.127,0.3516,2.7461,1.0537c0.4971,0.5654,0.7461,1.2627,0.7461,2.0908c0,0.9297-0.3086,1.6924-0.9258,2.2861
			c-0.6172,0.5947-1.4707,0.8916-2.5605,0.8916c-0.9717,0-1.7578-0.2461-2.3574-0.7402
			C203.2966,69.9012,202.9275,69.1005,202.9275,68.1083z M205.2517,68.1034c0,0.5391,0.1094,0.9375,0.3271,1.1963
			c0.2178,0.2578,0.4932,0.3867,0.8232,0.3867c0.334,0,0.6084-0.127,0.8223-0.3809c0.2148-0.2549,0.3223-0.6631,0.3223-1.2246
			c0-0.5244-0.1074-0.9141-0.3242-1.1709s-0.4844-0.3848-0.8027-0.3848c-0.3379,0-0.6172,0.1299-0.8379,0.3906
			C205.3611,67.1757,205.2517,67.5712,205.2517,68.1034z"/>
		<path class="st0" d="M211.0036,73.4169v-8.3496h2.1699v0.8945c0.2998-0.376,0.5752-0.6309,0.8262-0.7637
			c0.3379-0.1777,0.7119-0.2676,1.1211-0.2676c0.8096,0,1.4355,0.3096,1.877,0.9287c0.4434,0.6182,0.6641,1.3838,0.6641,2.2959
			c0,1.0059-0.2412,1.7734-0.7236,2.3027c-0.4814,0.5303-1.0908,0.7949-1.8281,0.7949c-0.3564,0-0.6826-0.0605-0.9766-0.1816
			c-0.2939-0.1221-0.5576-0.3027-0.7891-0.541v2.8867H211.0036z M213.3279,68.1083c0,0.4785,0.0996,0.834,0.3008,1.0654
			s0.4561,0.3477,0.7637,0.3477c0.2695,0,0.4961-0.1104,0.6777-0.333c0.1826-0.2227,0.2734-0.5996,0.2734-1.1309
			c0-0.4902-0.0947-0.8496-0.2852-1.0791c-0.1895-0.2295-0.4209-0.3447-0.6943-0.3447c-0.2959,0-0.543,0.1152-0.7402,0.3477
			C213.4255,67.2128,213.3279,67.5887,213.3279,68.1083z"/>
		<path class="st0" d="M218.488,68.1083c0-0.9219,0.3105-1.6826,0.9336-2.2803c0.623-0.5986,1.4639-0.8975,2.5234-0.8975
			c1.2109,0,2.126,0.3516,2.7451,1.0537c0.4971,0.5654,0.7461,1.2627,0.7461,2.0908c0,0.9297-0.3086,1.6924-0.9248,2.2861
			c-0.6172,0.5947-1.4707,0.8916-2.5605,0.8916c-0.9727,0-1.7578-0.2461-2.3584-0.7402
			C218.8562,69.9012,218.488,69.1005,218.488,68.1083z M220.8122,68.1034c0,0.5391,0.1084,0.9375,0.3262,1.1963
			c0.2188,0.2578,0.4932,0.3867,0.8242,0.3867c0.334,0,0.6074-0.127,0.8223-0.3809c0.2148-0.2549,0.3223-0.6631,0.3223-1.2246
			c0-0.5244-0.1084-0.9141-0.3252-1.1709c-0.2158-0.2568-0.4834-0.3848-0.8027-0.3848c-0.3379,0-0.6172,0.1299-0.8369,0.3906
			C220.9216,67.1757,220.8122,67.5712,220.8122,68.1034z"/>
		<path class="st0" d="M231.115,67.8983c0.459,0.0459,0.8242,0.1973,1.0957,0.4561c0.2715,0.2578,0.4072,0.6035,0.4072,1.0361
			c0,0.5771-0.1904,1.0088-0.5693,1.2959c-0.3799,0.2871-1.0615,0.4297-2.0449,0.4297h-3.4512v-6.0488h3.7305
			c0.6758,0,1.1914,0.1289,1.5469,0.3887c0.3545,0.2578,0.5312,0.6191,0.5312,1.084c0,0.3271-0.1152,0.6113-0.3467,0.8535
			c-0.2314,0.2412-0.5322,0.4023-0.8994,0.4824V67.8983z M228.8708,67.3739h0.5859c0.3877,0,0.5811-0.1777,0.5811-0.5332
			c0-0.2852-0.2051-0.4297-0.6143-0.4297h-0.5527V67.3739z M228.8708,69.6923h0.7627c0.1904,0,0.3438-0.043,0.4619-0.1309
			c0.1172-0.0879,0.1758-0.2148,0.1758-0.3818c0-0.3643-0.2129-0.5469-0.6377-0.5469h-0.7627V69.6923z"/>
		<path class="st0" d="M236.1326,67.2206h1.0596c1.7881,0,2.6826,0.6533,2.6826,1.959c0,1.291-0.8711,1.9365-2.6143,1.9365h-3.4521
			v-6.0488h2.3242V67.2206z M236.1326,69.6923h0.7578c0.1895,0,0.3438-0.043,0.4639-0.1309s0.1797-0.2148,0.1797-0.3818
			c0-0.3643-0.2148-0.5469-0.6436-0.5469h-0.7578V69.6923z"/>
		<path class="st0" d="M246.8513,71.1161h-2.3184v-2.3467h-0.085c-0.1631,0-0.292,0.0449-0.3838,0.1338
			c-0.0938,0.0898-0.1875,0.2246-0.2822,0.4082l-0.9287,1.8047h-2.5684l0.8994-1.748c0.2666-0.5205,0.6152-0.8047,1.0479-0.8555
			c-0.4902-0.0752-0.8633-0.2793-1.1191-0.6133c-0.2559-0.332-0.3848-0.6963-0.3848-1.0918c0-0.3916,0.0977-0.7383,0.2939-1.041
			c0.1953-0.3027,0.4805-0.4941,0.8545-0.5762c0.373-0.082,0.8457-0.123,1.415-0.123h3.5596V71.1161z M244.5329,67.3973v-0.9512
			h-0.7227c-0.3418,0-0.5547,0.041-0.6387,0.123c-0.083,0.082-0.125,0.1973-0.125,0.3467c0,0.3213,0.2812,0.4814,0.8438,0.4814
			H244.5329z"/>
	</g>
	<g>
		<path class="st0" d="M70.3205,67.0262l-2.2153-0.2324c0.0835-0.3877,0.2041-0.6924,0.3613-0.9141
			c0.1577-0.2227,0.3848-0.416,0.6807-0.5781c0.2129-0.1182,0.5049-0.209,0.8774-0.2734c0.3721-0.0645,0.7744-0.0977,1.2075-0.0977
			c0.6948,0,1.2529,0.0391,1.6743,0.1172s0.7725,0.2402,1.0537,0.4863c0.1973,0.1719,0.353,0.4141,0.4668,0.7266
			c0.1143,0.3135,0.1709,0.6123,0.1709,0.8965v2.6719c0,0.2852,0.0181,0.5078,0.0542,0.6689s0.1147,0.3682,0.2363,0.6182h-2.1758
			c-0.0874-0.1562-0.144-0.2744-0.1709-0.3555c-0.0264-0.082-0.0532-0.2109-0.0796-0.3848c-0.3037,0.293-0.6055,0.501-0.9058,0.627
			c-0.4097,0.166-0.8862,0.25-1.4292,0.25c-0.7217,0-1.2695-0.167-1.6436-0.502c-0.374-0.334-0.5605-0.7461-0.5605-1.2354
			c0-0.459,0.1343-0.8369,0.4043-1.1338c0.2695-0.2949,0.7666-0.5156,1.4922-0.6602c0.8691-0.1748,1.4331-0.2969,1.6914-0.3672
			s0.5317-0.1621,0.8203-0.2764c0-0.2842-0.0591-0.4844-0.1768-0.5986c-0.1177-0.1133-0.3247-0.1699-0.6206-0.1699
			c-0.3799,0-0.6646,0.0605-0.8545,0.1816C70.5315,66.5868,70.4118,66.7645,70.3205,67.0262z M72.3313,68.245
			c-0.3188,0.1143-0.6514,0.2148-0.9971,0.3027c-0.4707,0.125-0.7686,0.248-0.894,0.3701c-0.1289,0.125-0.1934,0.2676-0.1934,0.4268
			c0,0.1826,0.0635,0.332,0.1904,0.4473c0.1274,0.1152,0.3145,0.1738,0.561,0.1738c0.2583,0,0.4985-0.0625,0.7207-0.1875
			c0.2222-0.126,0.3794-0.2793,0.4727-0.459c0.0928-0.1797,0.1396-0.415,0.1396-0.7031V68.245z"/>
		<path class="st0" d="M80.55,67.8983c0.4595,0.0459,0.8247,0.1973,1.0962,0.4561c0.2715,0.2578,0.4072,0.6035,0.4072,1.0361
			c0,0.5771-0.1899,1.0088-0.5693,1.2959c-0.3799,0.2871-1.0615,0.4297-2.0449,0.4297H75.988v-6.0488h3.7305
			c0.6758,0,1.1914,0.1289,1.5464,0.3887c0.355,0.2578,0.5322,0.6191,0.5322,1.084c0,0.3271-0.1157,0.6113-0.3472,0.8535
			c-0.2319,0.2412-0.5317,0.4023-0.8999,0.4824V67.8983z M78.3059,67.3739h0.5869c0.3872,0,0.5806-0.1777,0.5806-0.5332
			c0-0.2852-0.2051-0.4297-0.6147-0.4297h-0.5527V67.3739z M78.3059,69.6923h0.7632c0.1899,0,0.3438-0.043,0.4614-0.1309
			s0.1768-0.2148,0.1768-0.3818c0-0.3643-0.2129-0.5469-0.6382-0.5469h-0.7632V69.6923z"/>
		<path class="st0" d="M88.2615,66.7587h-1.6802v4.3574h-2.3237v-4.3574h-1.6802v-1.6914h5.6841V66.7587z"/>
		<path class="st0" d="M88.803,68.1083c0-0.9219,0.311-1.6826,0.9336-2.2803c0.623-0.5986,1.4639-0.8975,2.5234-0.8975
			c1.2109,0,2.126,0.3516,2.7451,1.0537c0.4976,0.5654,0.7461,1.2627,0.7461,2.0908c0,0.9297-0.3086,1.6924-0.9253,2.2861
			c-0.6172,0.5947-1.4707,0.8916-2.5605,0.8916c-0.9717,0-1.7578-0.2461-2.3579-0.7402
			C89.1711,69.9012,88.803,69.1005,88.803,68.1083z M91.1267,68.1034c0,0.5391,0.1089,0.9375,0.3271,1.1963
			c0.2183,0.2578,0.4927,0.3867,0.8232,0.3867c0.334,0,0.6084-0.127,0.8228-0.3809c0.2148-0.2549,0.3218-0.6631,0.3218-1.2246
			c0-0.5244-0.1079-0.9141-0.3247-1.1709c-0.2163-0.2568-0.4839-0.3848-0.8027-0.3848c-0.3379,0-0.6172,0.1299-0.8374,0.3906
			C91.2365,67.1757,91.1267,67.5712,91.1267,68.1034z"/>
		<path class="st0" d="M105.2512,71.1161h-1.9595v-3.7969l-1.4312,3.7969h-1.396l-1.5581-3.7969v3.7969H96.947v-6.0488h2.7656
			l1.4521,3.4775l1.3228-3.4775h2.7637V71.1161z"/>
		<path class="st0" d="M106.4533,68.1083c0-0.9219,0.311-1.6826,0.9336-2.2803c0.623-0.5986,1.4639-0.8975,2.5234-0.8975
			c1.2109,0,2.126,0.3516,2.7451,1.0537c0.4976,0.5654,0.7461,1.2627,0.7461,2.0908c0,0.9297-0.3086,1.6924-0.9253,2.2861
			c-0.6172,0.5947-1.4707,0.8916-2.5605,0.8916c-0.9717,0-1.7578-0.2461-2.3579-0.7402
			C106.8215,69.9012,106.4533,69.1005,106.4533,68.1083z M108.7771,68.1034c0,0.5391,0.1089,0.9375,0.3271,1.1963
			c0.2183,0.2578,0.4927,0.3867,0.8232,0.3867c0.334,0,0.6084-0.127,0.8228-0.3809c0.2148-0.2549,0.3218-0.6631,0.3218-1.2246
			c0-0.5244-0.1079-0.9141-0.3247-1.1709c-0.2163-0.2568-0.4839-0.3848-0.8027-0.3848c-0.3379,0-0.6172,0.1299-0.8374,0.3906
			C108.8869,67.1757,108.7771,67.5712,108.7771,68.1034z"/>
		<path class="st0" d="M116.5451,65.244c0.2773-0.209,0.6587-0.3135,1.145-0.3135c1.1353,0,2,0.2988,2.5942,0.8984
			c0.5942,0.5977,0.8911,1.3438,0.8911,2.2373c0,0.8857-0.2949,1.6387-0.8853,2.2607c-0.5908,0.6211-1.4575,0.9316-2.6001,0.9316
			c-1.1392,0-1.999-0.3125-2.5801-0.9375c-0.5811-0.624-0.8716-1.6426-0.8716-3.0547c0-1.3066,0.2505-2.3623,0.752-3.168
			c0.501-0.8047,1.2227-1.2217,2.1641-1.2519l0.7007-0.0234c0.6265-0.0264,0.9722-0.1074,1.0366-0.2441h1.8398
			c0,1.1045-0.6211,1.6797-1.8628,1.7246c-0.8389,0.0312-1.4087,0.1133-1.7085,0.2461
			C116.8606,64.6835,116.6555,64.9149,116.5451,65.244z M117.7014,69.6688c0.3721,0,0.6577-0.1367,0.8574-0.4102
			c0.1992-0.2734,0.2988-0.666,0.2988-1.1758c0-0.5059-0.1025-0.8936-0.3076-1.1641c-0.2051-0.2695-0.4805-0.4043-0.8257-0.4043
			c-0.3838,0-0.6743,0.1465-0.8716,0.4414s-0.2959,0.6777-0.2959,1.1504c0,0.4902,0.0977,0.873,0.293,1.1494
			C117.0456,69.5321,117.3293,69.6688,117.7014,69.6688z"/>
		<path class="st0" d="M129.053,71.1161h-2.1929v-2.9756l-2.2754,2.9756h-2.207v-6.0488h2.1929v3.0156l2.2983-3.0156h2.1841V71.1161
			z"/>
		<path class="st0" d="M137.4817,71.1161h-2.3179v-4.3574h-1.7598v2.5381c0,0.6768-0.1377,1.1787-0.4131,1.5049
			c-0.2754,0.3281-0.6978,0.4912-1.2671,0.4912c-0.646,0-1.2246-0.0596-1.7373-0.1768v-1.7148
			c0.2734,0.084,0.4819,0.126,0.6265,0.126c0.3115,0,0.4673-0.2314,0.4673-0.6963v-3.7637h6.4014V71.1161z"/>
		<path class="st0" d="M141.2864,67.2206h1.0596c1.7886,0,2.6831,0.6533,2.6831,1.959c0,1.291-0.8721,1.9365-2.6147,1.9365h-3.4517
			v-6.0488h2.3237V67.2206z M141.2864,69.6923h0.7573c0.1899,0,0.3447-0.043,0.4644-0.1309s0.1797-0.2148,0.1797-0.3818
			c0-0.3643-0.2148-0.5469-0.644-0.5469h-0.7573V69.6923z"/>
		<path class="st0" d="M152.9626,71.1161h-2.3242v-2.2832h-2.1074v2.2832h-2.3232v-6.0488h2.3232v2.0732h2.1074v-2.0732h2.3242
			V71.1161z"/>
		<path class="st0" d="M154.1589,68.1083c0-0.9219,0.3115-1.6826,0.9336-2.2803c0.623-0.5986,1.4639-0.8975,2.5234-0.8975
			c1.2109,0,2.126,0.3516,2.7451,1.0537c0.498,0.5654,0.7461,1.2627,0.7461,2.0908c0,0.9297-0.3086,1.6924-0.9258,2.2861
			c-0.6172,0.5947-1.4707,0.8916-2.5605,0.8916c-0.9707,0-1.7578-0.2461-2.3574-0.7402
			C154.5271,69.9012,154.1589,69.1005,154.1589,68.1083z M156.4822,68.1034c0,0.5391,0.1094,0.9375,0.3281,1.1963
			c0.2178,0.2578,0.4922,0.3867,0.8223,0.3867c0.334,0,0.6094-0.127,0.8232-0.3809c0.2148-0.2549,0.3213-0.6631,0.3213-1.2246
			c0-0.5244-0.1074-0.9141-0.3242-1.1709s-0.4844-0.3848-0.8027-0.3848c-0.3379,0-0.6172,0.1299-0.8379,0.3906
			C156.5925,67.1757,156.4822,67.5712,156.4822,68.1034z"/>
		<path class="st0" d="M167.2009,66.7587h-2.5742v4.3574h-2.3242v-6.0488h4.8984V66.7587z"/>
		<path class="st0" d="M167.862,68.1083c0-0.9219,0.3115-1.6826,0.9336-2.2803c0.623-0.5986,1.4639-0.8975,2.5234-0.8975
			c1.2109,0,2.126,0.3516,2.7451,1.0537c0.498,0.5654,0.7461,1.2627,0.7461,2.0908c0,0.9297-0.3086,1.6924-0.9258,2.2861
			c-0.6172,0.5947-1.4707,0.8916-2.5605,0.8916c-0.9707,0-1.7578-0.2461-2.3574-0.7402
			C168.2302,69.9012,167.862,69.1005,167.862,68.1083z M170.1853,68.1034c0,0.5391,0.1094,0.9375,0.3281,1.1963
			c0.2178,0.2578,0.4922,0.3867,0.8223,0.3867c0.334,0,0.6094-0.127,0.8232-0.3809c0.2148-0.2549,0.3213-0.6631,0.3213-1.2246
			c0-0.5244-0.1074-0.9141-0.3242-1.1709s-0.4844-0.3848-0.8027-0.3848c-0.3379,0-0.6172,0.1299-0.8379,0.3906
			C170.2956,67.1757,170.1853,67.5712,170.1853,68.1034z"/>
	</g>
</g>
</svg>
