<svg xmlns="http://www.w3.org/2000/svg" viewBox="0 0 44.39 44.39"><defs><style>.a{fill:#fff;}</style></defs><title>velux_landing_vector_parts</title><path class="a" d="M22.19,44.39A22.19,22.19,0,1,1,44.39,22.19,22.22,22.22,0,0,1,22.19,44.39Zm0-43.09A20.89,20.89,0,1,0,43.09,22.19,20.92,20.92,0,0,0,22.19,1.3Z"/><path class="a" d="M22.24,22.84a.65.65,0,0,1-.46-.19l-6-6a.65.65,0,1,1,.92-.92l5.52,5.52,5.42-5.42a.65.65,0,0,1,.92.92L22.7,22.65A.65.65,0,0,1,22.24,22.84Z"/><path class="a" d="M16.26,28.82a.65.65,0,0,1-.46-1.11l6-6a.65.65,0,0,1,.92,0l5.88,5.88a.65.65,0,0,1-.92.92l-5.42-5.42-5.52,5.52A.65.65,0,0,1,16.26,28.82Z"/></svg>